<?xml version="1.0" encoding="UTF-8"?>
<svg id="Layer_1" xmlns="http://www.w3.org/2000/svg" version="1.1" viewBox="0 0 300.43 310.05">
  <!-- Generator: Adobe Illustrator 29.5.1, SVG Export Plug-In . SVG Version: 2.1.0 Build 141)  -->
  <defs>
    <style>
      .st0 {
        fill: #c6161d;
      }

      .st1 {
        fill: #231f20;
      }

      .st2 {
        fill: #ed1c24;
      }
    </style>
  </defs>
  <g>
    <g>
      <path class="st2" d="M211.22,161.25l-31.54,18.52c-2.94,1.53-6.45-.61-6.43-3.92l.57-124.97c0-.24-.2-.44-.44-.44h-34.02c-2,0-3.92-.79-5.34-2.19L99.51,14.27c-2.37-2.34-.72-6.37,2.61-6.37h65.73c3.41,0,6.68,1.35,9.09,3.76l36.06,36.03c2.23,2.23,3.49,5.26,3.49,8.41l-.03,96.48c0,3.64-2.02,6.97-5.25,8.65Z"/>
      <path class="st0" d="M162.19,83.06h-29.58c-1.54,0-2.79-1.25-2.79-2.79v-21.62c0-2.04-.82-3.99-2.26-5.42l-34.67-34.23c-2.35-2.32-6.33-.66-6.33,2.65v154.22c0,3.3,3.5,5.43,6.43,3.91l34.61-17.94c1.48-.77,2.42-2.3,2.42-3.98v-28.11c0-1.49,1.2-2.7,2.68-2.72l29.57-.39c2.19-.03,3.96-1.82,3.96-4.01v-35.56c0-2.21-1.8-4.01-4.01-4.01Z"/>
    </g>
    <path class="st0" d="M173.36,51.21h-34.04c-1.98,0-3.88-.77-5.3-2.15L98.18,14.29c-2.4-2.33-.75-6.39,2.59-6.39h59.72c7.03,0,12.76,5.65,12.86,12.68l.44,30.19c0,.24-.19.45-.44.45Z"/>
  </g>
  <g>
    <g>
      <path class="st1" d="M9.1,293.42c-1.71,0-3.05-.57-4.02-1.73-.83-.99-1.24-2.26-1.24-3.81,0-1.62.47-3.04,1.4-4.24s2.27-2.1,4-2.67c1.84.61,3.22,1.58,4.16,2.89.85,1.15,1.27,2.49,1.27,4.02,0,1.78-.54,3.18-1.62,4.19-.93.9-2.16,1.35-3.67,1.35h-.27ZM7.02,278.16c-.54,0-.97-.16-1.3-.48-.32-.32-.48-.76-.48-1.32,0-1.17.59-1.76,1.78-1.76.54,0,.96.16,1.28.47s.47.74.47,1.28c0,1.21-.58,1.81-1.75,1.81ZM9.07,290.15h.35c1.26,0,1.89-.75,1.89-2.24,0-1.71-.69-2.96-2.08-3.75-1.37.79-2.05,2.03-2.05,3.7,0,1.53.63,2.3,1.89,2.3ZM11.15,278.16c-.54,0-.97-.17-1.3-.5s-.48-.77-.48-1.31.16-.94.48-1.27c.32-.33.75-.49,1.3-.49s.97.16,1.28.47c.32.31.47.74.47,1.28,0,1.21-.58,1.81-1.76,1.81Z"/>
      <path class="st1" d="M25.57,290.15h2.43v3.27h-2.75c-.61,0-1.18-.08-1.7-.24-.23,1.73-.93,3.09-2.08,4.11-1.04.9-2.29,1.35-3.75,1.35-1.13,0-2.24-.29-3.32-.86v-2.97c.93.52,1.85.78,2.75.78.99,0,1.76-.32,2.31-.96.55-.64.83-1.52.83-2.66v-8.75l2.22-1.16,1.16-.62v.02l.03-.02v6.78c0,.7.14,1.2.43,1.5.29.29.77.45,1.46.45Z"/>
      <path class="st1" d="M26.37,293.42v-3.27h4.76v3.27h-4.76Z"/>
      <path class="st1" d="M29.51,293.42v-3.27h4.76v3.27h-4.76Z"/>
      <path class="st1" d="M32.64,293.42v-3.27h4.76v3.27h-4.76Z"/>
      <path class="st1" d="M35.77,293.42v-3.27h4.76v3.27h-4.76Z"/>
      <path class="st1" d="M38.9,293.42v-3.27h4.76v3.27h-4.76Z"/>
      <path class="st1" d="M42.04,293.42v-3.27h4.76v3.27h-4.76Z"/>
      <path class="st1" d="M45.17,293.42v-3.27h4.76v3.27h-4.76Z"/>
      <path class="st1" d="M48.31,293.42v-3.27h4.76v3.27h-4.76Z"/>
      <path class="st1" d="M51.44,293.42v-3.27h4.02c3.17,0,5.69-.95,7.56-2.84-1.22-2.14-2.71-3.21-4.46-3.21-1.44,0-3.01.78-4.72,2.35v-3c1.51-1.65,3.22-2.48,5.13-2.48,1.4,0,2.77.51,4.11,1.54,1.33,1.03,2.51,2.49,3.54,4.38v1.35c-1.3,1.66-2.91,2.93-4.85,3.83-1.94.9-4.05,1.35-6.34,1.35h-4ZM59.81,278.7c-.54,0-.97-.16-1.3-.48-.32-.33-.48-.77-.48-1.32,0-.52.16-.94.48-1.27.32-.32.75-.48,1.3-.48s.97.16,1.28.47c.32.31.47.74.47,1.28,0,1.21-.58,1.81-1.76,1.81Z"/>
      <path class="st1" d="M75.36,293.42c-1.64,0-2.91-.52-3.81-1.57-.77-.9-1.16-2.06-1.16-3.48v-10.58l3.4-1.78v12.21c0,.7.14,1.2.43,1.5.29.29.77.45,1.46.45h2.43v3.27h-2.75Z"/>
      <path class="st1" d="M76.5,293.42v-3.27h4.76v3.27h-4.76Z"/>
      <path class="st1" d="M79.63,293.42v-3.27h4.76v3.27h-4.76Z"/>
      <path class="st1" d="M82.76,293.42v-3.27h4.76v3.27h-4.76Z"/>
      <path class="st1" d="M85.9,293.42v-3.27h4.76v3.27h-4.76Z"/>
      <path class="st1" d="M89.03,293.42v-3.27h4.76v3.27h-4.76Z"/>
      <path class="st1" d="M92.16,293.42v-3.27h4.76v3.27h-4.76Z"/>
      <path class="st1" d="M95.29,293.42v-3.27h4.76v3.27h-4.76Z"/>
      <path class="st1" d="M98.43,293.42v-3.27h4.76v3.27h-4.76Z"/>
      <path class="st1" d="M101.56,293.42v-3.27h4.76v3.27h-4.76Z"/>
      <path class="st1" d="M104.69,293.42v-3.27h4.76v3.27h-4.76Z"/>
      <path class="st1" d="M107.82,293.42v-3.27h4.76v3.27h-4.76Z"/>
      <path class="st1" d="M110.96,293.42v-3.27h4.76v3.27h-4.76Z"/>
      <path class="st1" d="M114.09,293.42v-3.27h4.76v3.27h-4.76Z"/>
      <path class="st1" d="M117.22,293.42v-3.27h4.76v3.27h-4.76Z"/>
      <path class="st1" d="M133.23,290.15h4.27v3.27h-6.4c-.92,0-1.64-.06-2.16-.19-.56.13-1.28.19-2.16.19h-6.43v-3.27h4.27c-.68-1.1-1.03-2.22-1.03-3.35,0-1.8.53-3.25,1.59-4.35.95-.99,2.2-1.49,3.75-1.49,1.76,0,3.13.64,4.11,1.92.81,1.04,1.22,2.35,1.22,3.92,0,1.13-.35,2.25-1.03,3.35ZM128.91,289.85c.61-.29,1.11-.74,1.5-1.34.38-.6.58-1.23.58-1.9,0-.77-.19-1.38-.56-1.82-.37-.44-.87-.66-1.5-.66-1.37,0-2.06.82-2.06,2.45,0,.7.19,1.36.57,1.96.37.6.86,1.04,1.46,1.31ZM128.91,279.05c-.54,0-.97-.16-1.3-.48-.32-.33-.49-.77-.49-1.32,0-.52.17-.94.49-1.27.32-.32.75-.48,1.3-.48s.97.16,1.28.47c.32.31.47.74.47,1.28,0,1.21-.58,1.81-1.76,1.81Z"/>
      <path class="st1" d="M135.88,293.42v-3.27h1.7c.83,0,1.41-.18,1.77-.54s.53-.97.53-1.84v-9.97l3.38-1.81v11.8c0,1.74-.53,3.14-1.59,4.18-.97.96-2.27,1.43-3.89,1.43h-1.89Z"/>
      <path class="st1" d="M148.11,293.42v-15.61l3.4-1.81v17.42h-3.4Z"/>
      <path class="st1" d="M174.55,302.03c-1.55,1.01-3.29,1.51-5.21,1.51-2.13,0-3.84-.67-5.16-2-1.21-1.22-1.81-2.78-1.81-4.67,0-1.31.34-2.45,1.01-3.43s1.78-1.9,3.31-2.78c-1.04-.63-2.31-1.84-3.81-3.62-.2-.23-.35-.42-.46-.56v-1.54c.81-1.21,1.84-2.17,3.09-2.89,1.25-.72,2.52-1.08,3.82-1.08s2.57.37,3.83,1.09c1.26.73,2.3,1.71,3.13,2.93v1.49c-1.12,1.33-2.5,2.51-4.13,3.54.61.09,1.17.14,1.68.14h5.86l.02,3.27h-7.8c-.99,0-1.89-.23-2.7-.7-1.3.59-2.22,1.22-2.77,1.87-.55.65-.83,1.42-.83,2.32,0,1.03.36,1.85,1.07,2.46s1.67.92,2.88.92c1.77,0,3.42-.48,4.97-1.46v3.21ZM169.31,288.85c1.35-1.06,2.35-2.13,3-3.21-1.08-1.01-2.09-1.51-3.03-1.51s-1.88.5-2.89,1.51c.72,1.24,1.69,2.32,2.92,3.21Z"/>
      <path class="st1" d="M186.65,283.8c1.86-1.89,3.97-2.83,6.35-2.83,2.15,0,3.84.74,5.11,2.22,1.08,1.24,1.62,2.78,1.62,4.62v.65c0,1.69-.48,2.98-1.46,3.86-.81.74-1.89,1.11-3.24,1.11h-16.91v-3.27h4.84c.07-.26.17-.53.29-.84v-11.5l3.4-1.81v7.8ZM196.35,288.31v-.51c0-1.08-.31-1.96-.93-2.65s-1.42-1.03-2.39-1.03c-1.26,0-2.45.46-3.58,1.39-1.12.93-2.06,2.21-2.8,3.85v.78h8.24c.59,0,.98-.12,1.17-.35.19-.24.28-.73.28-1.49Z"/>
      <path class="st1" d="M208.88,293.42c-1.64,0-2.91-.52-3.81-1.57-.77-.9-1.16-2.06-1.16-3.48v-10.58l3.4-1.78v12.21c0,.7.14,1.2.43,1.5.29.29.77.45,1.46.45h2.43v3.27h-2.75Z"/>
      <path class="st1" d="M210.01,293.42v-3.27h4.76v3.27h-4.76Z"/>
      <path class="st1" d="M213.14,293.42v-3.27h4.76v3.27h-4.76Z"/>
      <path class="st1" d="M216.27,293.42v-3.27h4.76v3.27h-4.76Z"/>
      <path class="st1" d="M219.41,293.42v-3.27h4.76v3.27h-4.76Z"/>
      <path class="st1" d="M222.54,293.42v-3.27h4.76v3.27h-4.76Z"/>
      <path class="st1" d="M225.67,293.42v-3.27h4.76v3.27h-4.76Z"/>
      <path class="st1" d="M228.8,293.42v-3.27h4.76v3.27h-4.76Z"/>
      <path class="st1" d="M231.94,293.42v-3.27h4.76v3.27h-4.76Z"/>
      <path class="st1" d="M235.07,293.42v-3.27h4.76v3.27h-4.76Z"/>
      <path class="st1" d="M251.08,290.15h4.27v3.27h-6.4c-.92,0-1.64-.06-2.16-.19-.56.13-1.28.19-2.16.19h-6.43v-3.27h4.27c-.68-1.1-1.03-2.22-1.03-3.35,0-1.8.53-3.25,1.59-4.35.95-.99,2.2-1.49,3.75-1.49,1.76,0,3.13.64,4.11,1.92.81,1.04,1.22,2.35,1.22,3.92,0,1.13-.35,2.25-1.03,3.35ZM244.71,279.05c-.54,0-.97-.16-1.3-.48-.32-.33-.48-.77-.48-1.32,0-1.17.59-1.76,1.78-1.76.54,0,.96.16,1.28.47s.47.74.47,1.28c0,1.21-.58,1.81-1.75,1.81ZM246.76,289.85c.61-.29,1.11-.74,1.5-1.34.38-.6.58-1.23.58-1.9,0-.77-.19-1.38-.56-1.82-.37-.44-.87-.66-1.5-.66-1.37,0-2.06.82-2.06,2.45,0,.7.19,1.36.57,1.96.37.6.86,1.04,1.46,1.31ZM248.87,279.05c-.54,0-.97-.16-1.3-.48s-.49-.77-.49-1.32c0-1.17.59-1.76,1.78-1.76.54,0,.97.16,1.28.47.31.31.47.74.47,1.28,0,1.21-.59,1.81-1.76,1.81Z"/>
      <path class="st1" d="M253.73,293.42v-3.27h4.76v3.27h-4.76Z"/>
      <path class="st1" d="M274.04,290.15h2.4v3.27h-2.75c-1.3,0-2.36-.33-3.18-1-.97,1.03-2.25,1.54-3.83,1.54s-2.9-.51-3.83-1.54c-.86.67-1.94,1-3.21,1h-2.76v-3.27h2.43c.69,0,1.17-.15,1.46-.45.28-.3.43-.8.43-1.5v-.78c0-2.11.55-3.74,1.65-4.92.95-1.03,2.23-1.54,3.83-1.54,1.82,0,3.22.66,4.21,2,.83,1.13,1.24,2.62,1.24,4.46v.78c0,.7.15,1.2.45,1.5.3.29.79.45,1.47.45ZM266.67,290.69c1.37,0,2.05-1.12,2.05-3.35s-.68-3.21-2.05-3.21-2.08,1.07-2.08,3.21.69,3.35,2.08,3.35Z"/>
      <path class="st1" d="M284.11,290.15h2.43v3.27h-2.76c-1.4,0-2.54-.39-3.43-1.19-.99.79-2.21,1.19-3.65,1.19h-1.89v-3.27h1.7c.83,0,1.41-.18,1.77-.54s.53-.97.53-1.84v-9.97l3.38-1.81v5.45l.02-.02v6.78c0,.7.15,1.2.43,1.5.29.29.77.45,1.46.45Z"/>
      <path class="st1" d="M284.92,293.42v-3.27h1.7c.83,0,1.41-.18,1.77-.54s.53-.97.53-1.84v-9.97l3.38-1.81v11.8c0,1.74-.53,3.14-1.59,4.18-.97.96-2.27,1.43-3.89,1.43h-1.89Z"/>
    </g>
    <g>
      <path class="st1" d="M267.89,250.33h-34.91c-5.93,0-10.76-4.83-10.76-10.76s4.82-10.76,10.76-10.76h9.51v-6.08h-9.51c-9.28,0-16.84,7.55-16.84,16.84,0,3.94,1.42,7.74,3.97,10.76h-69.28v-19.31h-6.08v19.31h-50.67v-27.6h-12.88c-9.29,0-16.84,7.55-16.84,16.84s7.55,16.84,16.84,16.84h6.8v8.07h6.08v-8.07h179.89v-37.59h-6.08v31.5ZM81.2,228.82h6.8v21.51h-6.8c-5.93,0-10.76-4.83-10.76-10.76s4.83-10.76,10.76-10.76Z"/>
      <rect class="st1" x="286.18" y="218.83" width="6.08" height="37.32"/>
      <rect class="st1" x="50.59" y="218.83" width="6.08" height="37.32"/>
      <path class="st1" d="M36.46,245.87c0,6.64-5.4,12.04-12.04,12.04s-12.04-5.4-12.04-12.04v-14.85h-6.08v14.85c0,9.99,8.13,18.12,18.12,18.12s18.12-8.13,18.12-18.12v-14.85h-6.08v14.85Z"/>
      <rect class="st1" x="21.26" y="223.14" width="6.32" height="6.31"/>
      <rect class="st1" x="144.63" y="223.14" width="6.32" height="6.31"/>
    </g>
  </g>
</svg>